# xmcd
#
# Track frame offsets:
#	150
#	3670
#	7887
#	21512
#	30687
#	33880
#	44587
#	52372
#	59855
#	68332
#	72437
#	80795
#	89100
#	93012
#	99525
#	103660
#	111957
#	122467
#	129215
#	133615
#	136580
#	142222
#	155412
#	161880
#	169035
#	173200
#	183740
#	191815
#	195240
#	205195
#	209927
#	217635
#	225687
#	231190
#	237395
#	240705
#	251187
#	255867
#	261982
#	271142
#	276340
#	279525
#	284765
#	290745
#	298637
#	305435
#	315315
#	324185
#	330625
#	335982
#
# Disc length: 4536 seconds
#
# Revision: 1
# Processed by: cddbd v1.5.1PL0 Copyright (c) Steve Scherf et al.
# Submitted via: CDex 1.50Beta5
#
DISCID=0811b632
DTITLE=Various Artist - ハ調で弾くクラシック/珠玉のピアノ名曲50選
DYEAR=1900
DGENRE=Classical
TTITLE0=ベートーヴェン:エリーゼのために
TTITLE1=ショパン:小犬のワルツ
TTITLE2=バダジェフスカ:乙女の祈り
TTITLE3=モーツァルト:トルコ行進曲
TTITLE4=ベートーヴェン:トルコ行進曲
TTITLE5=ショパン:別れの曲
TTITLE6=ショパン:雨だれの前奏曲
TTITLE7=リスト:愛の夢 第3番
TTITLE8=モーツァルト:きらきら星変奏曲
TTITLE9=シューベルト:軍隊行進曲
TTITLE10=ドビュッシー:月の光
TTITLE11=ベートーヴェン:ピアノ・ソナタ 「月光」
TTITLE12=ショパン:華麗なる大円舞曲
TTITLE13=ドヴォルザーク:ユモレスク
TTITLE14=モーツァルト:メヌエット K.2
TTITLE15=J.S.バッハ:主よ人の望みの喜びよ
TTITLE16=ショパン:葬送行進曲
TTITLE17=ジョプリン:エンターティナー
TTITLE18=シューマン:楽しき農夫
TTITLE19=ショパン:前奏曲 作品28-7
TTITLE20=ベートーヴェン:さらばピアノよ
TTITLE21=サティ:ジムノペディ 第1番
TTITLE22=ワイマン:銀波
TTITLE23=ムソルグスキー:展覧会の絵より 「プロムナード」
TTITLE24=ショパン:ワルツ 「告別」
TTITLE25=ベートーヴェン:ピアノ・ソナタ 「悲愴」
TTITLE26=モーツァルト:ピアノ・ソナタ 第11番 第1楽章
TTITLE27=ショパン:ワルツ 作品64-2
TTITLE28=シューベルト:即興曲 作品142-3
TTITLE29=ショパン:夜想曲 作品15-2
TTITLE30=ショパン:幻想即興曲 作品66
TTITLE31=ショパン:夜想曲 作品9-2
TTITLE32=シューマン:トロイメライ
TTITLE33=ブラームス:ハンガリー舞曲 第5番
TTITLE34=リスト:ラ・カンパネラ
TTITLE35=ドビュッシー:亜麻色の髪の乙女
TTITLE36=ショパン:華麗なるワルツ
TTITLE37=チャイコフスキー:舟歌
TTITLE38=ウェーバー:舞踏への勧誘
TTITLE39=ショパン:マズルカ 作品7-1
TTITLE40=ベートーヴェン:ピアノ・ソナタ 「テンペスト」
TTITLE41=ベートーヴェン:ピアノ・ソナタ 「ワルトシュタイン」
TTITLE42=ショパン:バラード 第3番
TTITLE43=シューベルト:楽興の時 第3番
TTITLE44=ベートーヴェン:ピアノ・ソナタ 「熱情」
TTITLE45=リスト:ハンガリー狂詩曲 第2番
TTITLE46=ランゲ:花の歌
TTITLE47=メンデルスゾーン:春の歌
TTITLE48=ショパン:軍隊ポロネーズ
TTITLE49=ショパン:英雄ポロネーズ
EXTD=
EXTT0=
EXTT1=
EXTT2=
EXTT3=
EXTT4=
EXTT5=
EXTT6=
EXTT7=
EXTT8=
EXTT9=
EXTT10=
EXTT11=
EXTT12=
EXTT13=
EXTT14=
EXTT15=
EXTT16=
EXTT17=
EXTT18=
EXTT19=
EXTT20=
EXTT21=
EXTT22=
EXTT23=
EXTT24=
EXTT25=
EXTT26=
EXTT27=
EXTT28=
EXTT29=
EXTT30=
EXTT31=
EXTT32=
EXTT33=
EXTT34=
EXTT35=
EXTT36=
EXTT37=
EXTT38=
EXTT39=
EXTT40=
EXTT41=
EXTT42=
EXTT43=
EXTT44=
EXTT45=
EXTT46=
EXTT47=
EXTT48=
EXTT49=
PLAYORDER=
